# xmcd
#
# Track frame offsets:
#	150
#	21702
#	49203
#	72922
#	119080
#
# Disc length: 1780 seconds
#
# Revision: 1
# Processed by: cddbd v1.5.2PL0 Copyright (c) Steve Scherf et al.
# Submitted via: audiograbber 1.83.01
#
DISCID=4d06f205
DTITLE=Grateful Dead - 68-12-07 Bellarmine College, Louisville KY
DYEAR=1900
DGENRE=
TTITLE0=Rosemary
TTITLE1=He Was A Friend Of Mine
TTITLE2=It Hurts Me Too
TTITLE3=Morning Dew
TTITLE4=We Bid You Goodnight
EXTD=
EXTT0=
EXTT1=
EXTT2=
EXTT3=
EXTT4=
PLAYORDER=
